HIERARCHY
ROOT Hips
{
  OFFSET 5.72205e-005 65.662 3.42586
  CHANNELS 6 Xposition Yposition Zposition Zrotation Xrotation Yrotation
  JOINT Chest
  {
    OFFSET 0 8.7983 -4.7612
    CHANNELS 3 Zrotation Xrotation Yrotation
    JOINT Chest2
    {
      OFFSET 0 8.0291 0.4195
      CHANNELS 3 Zrotation Xrotation Yrotation
      JOINT Chest3
      {
        OFFSET 0 9.9351 -2.2114
        CHANNELS 3 Zrotation Xrotation Yrotation
        JOINT Neck
        {
          OFFSET 0 22.3885 -0.4656
          CHANNELS 3 Zrotation Xrotation Yrotation
          JOINT Head
          {
            OFFSET -0.0001 12.643 3.4389
            CHANNELS 3 Zrotation Xrotation Yrotation
            End Site
            {
              OFFSET 0.0001 17.6655 0.5274
            }
          }
        }
        JOINT LeftCollar
        {
          OFFSET 2.2603 21.606 7.4023
          CHANNELS 3 Zrotation Xrotation Yrotation
          JOINT LeftShoulder
          {
            OFFSET 13.5163 -1.1332 -5.0146
            CHANNELS 3 Zrotation Xrotation Yrotation
            JOINT LeftElbow
            {
              OFFSET -0.0995 -28.05 -0.2431
              CHANNELS 3 Zrotation Xrotation Yrotation
              JOINT LeftWrist
              {
                OFFSET 0.0679 -23.3996 -0.1402
                CHANNELS 3 Zrotation Xrotation Yrotation
                JOINT LeftFinger1
                {
                  OFFSET 0.7932 -9.069 2.5189
                  CHANNELS 3 Zrotation Xrotation Yrotation
                  JOINT LeftFinger11
                  {
                    OFFSET -0.8272 -3.3923 0.5977
                    CHANNELS 3 Zrotation Xrotation Yrotation
                    JOINT LeftFinger12
                    {
                      OFFSET -0.5649 -2.3158 0.4082
                      CHANNELS 3 Zrotation Xrotation Yrotation
                      End Site
                      {
                        OFFSET -0.4919 -1.6479 0.2673
                      }
                    }
                  }
                }
                JOINT LeftFinger2
                {
                  OFFSET 0.9159 -9.2044 0.2193
                  CHANNELS 3 Zrotation Xrotation Yrotation
                  JOINT LeftFinger21
                  {
                    OFFSET 0.0117 -4.1944 -0.0248
                    CHANNELS 3 Zrotation Xrotation Yrotation
                    JOINT LeftFinger22
                    {
                      OFFSET 0.0071 -2.3249 -0.0142
                      CHANNELS 3 Zrotation Xrotation Yrotation
                      End Site
                      {
                        OFFSET -0.1475 -2.0882 0.0028
                      }
                    }
                  }
                }
                JOINT LeftFinger3
                {
                  OFFSET 0.6113 -8.7231 -2.0637
                  CHANNELS 3 Zrotation Xrotation Yrotation
                  JOINT LeftFinger31
                  {
                    OFFSET -0.1927 -3.8059 -0.2383
                    CHANNELS 3 Zrotation Xrotation Yrotation
                    JOINT LeftFinger32
                    {
                      OFFSET -0.1091 -2.1688 -0.1362
                      CHANNELS 3 Zrotation Xrotation Yrotation
                      End Site
                      {
                        OFFSET -0.2358 -1.9176 -0.0906
                      }
                    }
                  }
                }
                JOINT LeftFinger4
                {
                  OFFSET -0.6151 -8.0947 -3.5641
                  CHANNELS 3 Zrotation Xrotation Yrotation
                  JOINT LeftFinger41
                  {
                    OFFSET -0.4882 -2.341 -0.6462
                    CHANNELS 3 Zrotation Xrotation Yrotation
                    JOINT LeftFinger42
                    {
                      OFFSET -0.3575 -1.7167 -0.4742
                      CHANNELS 3 Zrotation Xrotation Yrotation
                      End Site
                      {
                        OFFSET -0.4187 -1.5237 -0.3496
                      }
                    }
                  }
                }
                JOINT LeftFinger0
                {
                  OFFSET -1.42 -1.8761 1.4223
                  CHANNELS 3 Zrotation Xrotation Yrotation
                  JOINT LeftFinger01
                  {
                    OFFSET -1.1471 -3.4929 2.6334
                    CHANNELS 3 Zrotation Xrotation Yrotation
                    JOINT LeftFinger02
                    {
                      OFFSET -0.823 -2.3 1.6571
                      CHANNELS 3 Zrotation Xrotation Yrotation
                      End Site
                      {
                        OFFSET -0.5822 -1.6914 1.1582
                      }
                    }
                  }
                }
              }
            }
          }
        }
        JOINT RightCollar
        {
          OFFSET -2.2603 21.606 7.4023
          CHANNELS 3 Zrotation Xrotation Yrotation
          JOINT RightShoulder
          {
            OFFSET -13.5187 -1.1334 -5.0155
            CHANNELS 3 Zrotation Xrotation Yrotation
            JOINT RightElbow
            {
              OFFSET 0.0994 -28.0499 -0.2431
              CHANNELS 3 Zrotation Xrotation Yrotation
              JOINT RightWrist
              {
                OFFSET -0.0679 -23.3996 -0.1402
                CHANNELS 3 Zrotation Xrotation Yrotation
                JOINT RightFinger1
                {
                  OFFSET -0.7932 -9.0691 2.5189
                  CHANNELS 3 Zrotation Xrotation Yrotation
                  JOINT RightFinger11
                  {
                    OFFSET 0.8272 -3.3923 0.5977
                    CHANNELS 3 Zrotation Xrotation Yrotation
                    JOINT RightFinger12
                    {
                      OFFSET 0.565 -2.3158 0.4082
                      CHANNELS 3 Zrotation Xrotation Yrotation
                      End Site
                      {
                        OFFSET 0.4919 -1.6479 0.2673
                      }
                    }
                  }
                }
                JOINT RightFinger2
                {
                  OFFSET -0.916 -9.2044 0.2193
                  CHANNELS 3 Zrotation Xrotation Yrotation
                  JOINT RightFinger21
                  {
                    OFFSET -0.0117 -4.1944 -0.0248
                    CHANNELS 3 Zrotation Xrotation Yrotation
                    JOINT RightFinger22
                    {
                      OFFSET -0.0071 -2.3249 -0.0142
                      CHANNELS 3 Zrotation Xrotation Yrotation
                      End Site
                      {
                        OFFSET 0.1475 -2.0882 0.0028
                      }
                    }
                  }
                }
                JOINT RightFinger3
                {
                  OFFSET -0.6113 -8.7231 -2.0637
                  CHANNELS 3 Zrotation Xrotation Yrotation
                  JOINT RightFinger31
                  {
                    OFFSET 0.1927 -3.8059 -0.2383
                    CHANNELS 3 Zrotation Xrotation Yrotation
                    JOINT RightFinger32
                    {
                      OFFSET 0.1091 -2.1688 -0.1362
                      CHANNELS 3 Zrotation Xrotation Yrotation
                      End Site
                      {
                        OFFSET 0.2358 -1.9176 -0.0906
                      }
                    }
                  }
                }
                JOINT RightFinger4
                {
                  OFFSET 0.6151 -8.0947 -3.564
                  CHANNELS 3 Zrotation Xrotation Yrotation
                  JOINT RightFinger41
                  {
                    OFFSET 0.4882 -2.341 -0.6462
                    CHANNELS 3 Zrotation Xrotation Yrotation
                    JOINT RightFinger42
                    {
                      OFFSET 0.3574 -1.7166 -0.4742
                      CHANNELS 3 Zrotation Xrotation Yrotation
                      End Site
                      {
                        OFFSET 0.4187 -1.5237 -0.3496
                      }
                    }
                  }
                }
                JOINT RightFinger0
                {
                  OFFSET 1.4199 -1.8761 1.4221
                  CHANNELS 3 Zrotation Xrotation Yrotation
                  JOINT RightFinger01
                  {
                    OFFSET 1.1472 -3.4929 2.6336
                    CHANNELS 3 Zrotation Xrotation Yrotation
                    JOINT RightFinger02
                    {
                      OFFSET 0.8229 -2.3 1.6571
                      CHANNELS 3 Zrotation Xrotation Yrotation
                      End Site
                      {
                        OFFSET 0.5822 -1.6914 1.1582
                      }
                    }
                  }
                }
              }
            }
          }
        }
      }
    }
  }
  JOINT RightHip
  {
    OFFSET -9.412 3.9771 -0.7758
    CHANNELS 3 Zrotation Xrotation Yrotation
    JOINT RightKnee
    {
      OFFSET -0.7531 -40.938 0
      CHANNELS 3 Zrotation Xrotation Yrotation
      JOINT RightAnkle
      {
        OFFSET 0 -40.1986 0
        CHANNELS 3 Zrotation Xrotation Yrotation
        JOINT RightToe
        {
          OFFSET 0 -4.4182 9.239
          CHANNELS 3 Zrotation Xrotation Yrotation
          End Site
          {
            OFFSET 0 0 6.1981
          }
        }
      }
    }
  }
  JOINT LeftHip
  {
    OFFSET 9.4119 3.9773 -0.7758
    CHANNELS 3 Zrotation Xrotation Yrotation
    JOINT LeftKnee
    {
      OFFSET 0.7532 -40.9383 0
      CHANNELS 3 Zrotation Xrotation Yrotation
      JOINT LeftAnkle
      {
        OFFSET 0 -40.1986 0
        CHANNELS 3 Zrotation Xrotation Yrotation
        JOINT LeftToe
        {
          OFFSET 0 -4.4182 9.239
          CHANNELS 3 Zrotation Xrotation Yrotation
          End Site
          {
            OFFSET 0 0 6.1981
          }
        }
      }
    }
  }
}
MOTION
Frames:	5
Frame Time:	0.0333333
5.72205e-005 65.662 3.42586 0 0 -0 0 0 -0 0 0 -0 0 0 -0 0 0 -0 0 0 -0 0 0 -12.5014 88.1196 14.2451 10.6914 -0.00160068 -0.00239207 0.000740045 -8.4365e-005 7.00714e-005 -9.52055e-007 9.93923e-017 -1.98785e-016 -1.59028e-015 9.93923e-017 -5.96354e-016 -1.59028e-015 -9.93923e-017 -5.96354e-016 -1.59028e-015 9.93923e-017 -1.98785e-016 -1.59028e-015 -0.0128176 0.00232552 8.52707e-005 9.93923e-017 5.96354e-016 -0 9.93923e-017 -1.98785e-016 -1.59028e-015 -0.0160551 0.00299681 0.000857156 -2.48481e-016 0 3.18055e-015 9.93923e-017 -1.98785e-016 -1.59028e-015 -0.0125865 0.0031206 0.00282719 0 1.98785e-016 -0 9.93923e-017 -1.98785e-016 -1.59028e-015 9.93923e-017 -5.96354e-016 -1.59028e-015 -9.93923e-017 -5.96354e-016 -1.59028e-015 -0.865644 0.16582 7.03859 -88.0329 10.2057 -10.5567 0.0015593 -0.00248883 -0.000788628 7.87605e-005 4.10553e-005 1.24965e-005 -3.97569e-016 -7.95139e-016 3.18055e-015 -1.98785e-016 -3.97569e-016 3.18055e-015 -1.98785e-016 0 3.18055e-015 -3.97569e-016 -7.95139e-016 3.18055e-015 0.0129473 0.00231697 -8.70038e-005 9.93923e-017 -7.95139e-016 1.59028e-015 -3.97569e-016 -7.95139e-016 3.18055e-015 0.0163314 0.00303369 -0.000872333 3.97569e-016 7.95139e-016 -3.18055e-015 -3.97569e-016 -7.95139e-016 3.18055e-015 0.0145763 0.00367772 -0.00326275 9.93923e-017 -3.97569e-016 -0 -3.97569e-016 -7.95139e-016 3.18055e-015 -1.98785e-016 -3.97569e-016 3.18055e-015 -1.98785e-016 0 3.18055e-015 3.42482 1.32465 -0.0626183 0.000117508 0.717283 0.000978199 -3.4257 -2.04197 -0.0604716 6.47761e-025 0 -0 -3.42483 1.34017 0.0627307 -0.000193936 0.682302 -0.0013703 3.42574 -2.02253 0.0595886 -8.45714e-024 0 -7.40531e-025 
0.00103131 1.89824 9.65953 180 -89.9981 180 -0.0965475 4.71972 -0.149039 -0.181657 9.43963 -0.291559 -0.181657 9.43968 -0.29156 -3.58463e-007 17.9948 -1.14975e-006 7.94059e-008 8.99154 -1.31611e-008 -9.00483 6.07973 -10.3377 24.1394 -18.7231 15.4551 -29.4301 -58.2076 -11.9949 -10.537 5.99072 -21.6841 -3.97569e-016 6.36111e-015 6.4605e-015 -4.47266e-015 0 -5.06901e-015 3.67752e-015 0 -1.98785e-016 -3.97569e-016 6.36111e-015 6.4605e-015 -0.0128209 0.00232901 8.6434e-005 1.49089e-016 -3.18055e-015 -1.39149e-015 -3.97569e-016 6.36111e-015 6.4605e-015 -0.0160808 0.00300684 0.000860322 -5.46658e-016 0 -4.72114e-015 -3.97569e-016 6.36111e-015 6.4605e-015 -0.0125836 0.00313156 0.00283385 7.15625e-015 1.59028e-014 6.55989e-015 -3.97569e-016 6.36111e-015 6.4605e-015 -4.47266e-015 0 -5.06901e-015 3.67752e-015 0 -1.98785e-016 8.10273 6.15225 5.03294 -22.2862 -19.6718 -10.2659 29.1066 -58.6243 11.1885 10.0119 6.12808 22.5512 3.77691e-015 0 -0 1.11266e-006 -2.79786e-007 -1.29281e-006 5.56331e-007 2.44161e-006 -6.46405e-007 3.77691e-015 0 -0 0.0129486 0.00231021 -8.39117e-005 -4.77083e-015 3.18055e-015 -1.19271e-015 3.77691e-015 0 -0 0.0163791 0.00303657 -0.000871811 6.36111e-015 0 -3.57812e-015 3.77691e-015 0 -0 0.0145471 0.00366738 -0.00325374 1.39362e-008 7.34748e-006 -2.42441e-006 3.77691e-015 0 -0 1.11266e-006 -2.79786e-007 -1.29281e-006 5.56331e-007 2.44161e-006 -6.46405e-007 5.16332 0.513434 7.45556 -2.56992 14.0721 0.405021 -3.76462 10.1406 -10.4413 -2.39349e-007 3.13647e-005 9.0296e-007 -5.09621 0.764851 -10.5819 1.86713 13.7354 -0.216146 3.50241 10.0113 13.4775 -4.74797e-007 3.95795e-009 3.09003e-008 
0.00103132 1.89824 9.65953 -180 -89.9981 -180 -0.0967612 4.80765 -0.148963 -0.181893 9.61549 -0.291291 -0.181894 9.61557 -0.291292 -0.259207 17.7627 0.0449054 0.0454775 8.85056 0.045201 -9.01961 5.74965 -10.5854 24.4868 -18.652 15.615 -29.0178 -58.1647 -11.6353 -10.7817 5.10934 -21.7268 3.94921e-006 3.06449e-007 -1.93306e-007 6.60167e-007 -2.12767e-006 1.58476e-006 1.39149e-015 2.22639e-014 3.57812e-015 3.94921e-006 3.06449e-007 -1.93306e-007 -0.0128207 0.00232846 8.29403e-005 6.55989e-015 -6.36111e-015 -4.67144e-015 3.94921e-006 3.06449e-007 -1.93306e-007 -0.0160272 0.00300305 0.000862774 -3.97569e-016 -6.36111e-015 -7.95139e-016 3.94921e-006 3.06449e-007 -1.93306e-007 -0.0125737 0.00311233 0.00283059 1.07446e-005 1.7013e-006 4.23596e-006 3.94921e-006 3.06449e-007 -1.93306e-007 6.60167e-007 -2.12767e-006 1.58476e-006 1.39149e-015 2.22639e-014 3.57812e-015 8.30026 5.93384 5.38582 -22.6846 -19.6466 -10.4655 28.5686 -58.5325 10.7141 10.1745 5.15232 22.718 6.75868e-015 -3.18055e-015 1.98785e-015 3.97569e-016 -1.90833e-014 2.38542e-015 -5.4908e-007 2.78829e-007 6.52255e-007 6.75868e-015 -3.18055e-015 1.98785e-015 0.0129925 0.00233556 -7.68083e-005 -5.49117e-007 -6.36111e-015 6.52233e-007 6.75868e-015 -3.18055e-015 1.98785e-015 0.0163008 0.00303128 -0.000872199 5.96354e-015 -3.18055e-015 -7.15625e-015 6.75868e-015 -3.18055e-015 1.98785e-015 0.0145836 0.00367219 -0.00326294 -3.97569e-016 3.18055e-015 -5.1684e-015 6.75868e-015 -3.18055e-015 1.98785e-015 3.97569e-016 -1.90833e-014 2.38542e-015 -5.4908e-007 2.78829e-007 6.52255e-007 5.16332 0.513434 7.45556 -2.56993 14.0721 0.405022 -3.76461 10.1405 -10.4413 -4.84175e-008 2.30054e-005 -9.52e-007 -5.10317 0.750619 -10.5815 1.86733 13.7842 -0.2146 3.44081 10.1363 13.2463 -0 0 3.97569e-016 
0.00103132 1.89824 9.65953 179.998 -89.9981 179.998 -0.0969706 4.89592 -0.148879 -0.182122 9.79202 -0.29101 -0.182122 9.79208 -0.29101 -0.518041 17.5303 0.0886754 0.0910641 8.70958 0.0905121 -9.03583 5.41958 -10.833 24.8338 -18.5799 15.7743 -28.6064 -58.1204 -11.2766 -11.027 4.22719 -21.7733 2.78299e-015 1.27222e-014 -0 -5.06901e-015 3.18055e-015 -3.77691e-015 -1.2921e-015 3.18055e-015 2.18663e-015 2.78299e-015 1.27222e-014 -0 -0.0128283 0.00232999 8.87911e-005 -6.95746e-016 -9.54166e-015 7.95139e-016 2.78299e-015 1.27222e-014 -0 -0.0160417 0.00300198 0.000865569 -3.57812e-015 0 -4.37326e-015 2.78299e-015 1.27222e-014 -0 -0.0125837 0.00311957 0.00283265 4.96962e-015 6.36111e-015 4.37326e-015 2.78299e-015 1.27222e-014 -0 -5.06901e-015 3.18055e-015 -3.77691e-015 -1.2921e-015 3.18055e-015 2.18663e-015 8.4991 5.71663 5.73941 -23.0831 -19.6202 -10.6649 28.0334 -58.4384 10.2426 10.34 4.17582 22.8876 1.03889e-005 -7.90383e-007 4.63388e-006 -2.94248e-006 4.37538e-007 -1.20033e-006 -6.90473e-006 3.52845e-007 -4.09157e-006 1.03889e-005 -7.90383e-007 4.63388e-006 0.0129596 0.00232644 -9.06711e-005 2.82545e-006 -8.96273e-007 -1.04478e-006 1.03889e-005 -7.90383e-007 4.63388e-006 0.0162979 0.00303773 -0.000873102 5.41772e-007 1.27222e-014 -6.57997e-007 1.03889e-005 -7.90383e-007 4.63388e-006 0.0146039 0.00368453 -0.00327413 -1.85846e-006 3.20445e-006 -2.5166e-006 1.03889e-005 -7.90383e-007 4.63388e-006 -2.94248e-006 4.37538e-007 -1.20033e-006 -6.90473e-006 3.52845e-007 -4.09157e-006 5.16332 0.513434 7.45556 -2.56992 14.0721 0.405021 -3.76462 10.1406 -10.4413 -2.39349e-007 3.13647e-005 9.0296e-007 -5.11009 0.73694 -10.5811 1.86764 13.8326 -0.213065 3.37979 10.2614 13.0151 -6.11838e-007 -5.09602e-008 -7.28376e-007 
0.00103133 1.89824 9.65953 179.996 -89.9981 179.996 -0.0971761 4.98444 -0.148789 -0.182343 9.96912 -0.290715 -0.182343 9.96914 -0.290716 -0.776508 17.2976 0.131313 0.13676 8.56856 0.135933 -9.05347 5.08954 -11.0807 25.1805 -18.5069 15.9331 -28.1961 -58.0747 -10.919 -11.273 3.34446 -21.8235 -3.97569e-015 0 3.97569e-016 2.98177e-015 3.18055e-015 -4.96962e-015 -3.18055e-015 -3.18055e-015 -2.38542e-015 -3.97569e-015 0 3.97569e-016 -0.0127872 0.00231191 8.55491e-005 -1.19217e-006 -5.50987e-006 8.64374e-007 -3.97569e-015 0 3.97569e-016 -0.0160454 0.00298466 0.000856136 -3.77691e-015 -6.36111e-015 -1.98785e-015 -3.97569e-015 0 3.97569e-016 -0.0125978 0.00313155 0.00283037 -6.16232e-015 -3.18055e-015 -9.93923e-016 -3.97569e-015 0 3.97569e-016 2.98177e-015 3.18055e-015 -4.96962e-015 -3.18055e-015 -3.18055e-015 -2.38542e-015 8.69926 5.50061 6.09371 -23.4811 -19.5924 -10.864 27.5008 -58.342 9.77393 10.5083 3.19873 23.0601 0 0 -5.1684e-015 -2.38542e-015 -3.18055e-015 -7.95139e-015 -4.37326e-015 0 -1.19271e-014 0 0 -5.1684e-015 0.0129467 0.0023129 -8.50804e-005 1.19271e-015 3.18055e-015 -1.59028e-015 0 0 -5.1684e-015 0.0163258 0.00301829 -0.000871022 5.96354e-015 6.36111e-015 7.95139e-015 0 0 -5.1684e-015 0.0145737 0.0036807 -0.00325761 -1.19271e-015 3.18055e-015 3.97569e-015 0 0 -5.1684e-015 -2.38542e-015 -3.18055e-015 -7.95139e-015 -4.37326e-015 0 -1.19271e-014 5.16332 0.513434 7.45556 -2.56992 14.0721 0.405021 -3.76462 10.1406 -10.4413 7.96503e-007 3.14073e-005 6.55279e-007 -5.11702 0.723296 -10.5807 1.86802 13.8813 -0.211508 3.31934 10.3865 12.7839 -6.45343e-007 2.5864e-008 4.17687e-007 
